<svg version="1.2" xmlns="http://www.w3.org/2000/svg" viewBox="0 0 512 512" width="512" height="512">
	<title>logo-svg</title>
	<style>
		.s0 { fill: #1a1a1a } 
		.s1 { fill: #242424 } 
		.s2 { fill: #8570f3 } 
		.s3 { fill: #a597f3 } 
		.s4 { fill: #cac2f3 } 
	</style>
	<g id="SVGRepo_bgCarrier">
	</g>
	<g id="SVGRepo_tracerCarrier">
	</g>
	<g id="SVGRepo_iconCarrier">
		<path id="Layer" class="s0" d="m256 512c-141.6 0-256-114.4-256-256 0-141.6 114.4-256 256-256 141.6 0 256 114.4 256 256 0 141.6-114.4 256-256 256z"/>
		<path id="Layer" class="s1" d="m508.9 295.6l-96.5-96.5-0.2 0.6-91.6-94.1-93 97-28.5-3.5-28.3-32.5h-28.4l-78 81.9 92.5 92.4-57.3 57.3 109.4 109.5c15.2 2.8 30.9 4.3 47 4.3 127.9 0 233.9-93.8 252.9-216.4z"/>
		<path id="Layer" class="s2" d="m327.1 199.1h85.3v199.1h-85.3z"/>
		<path id="Layer" class="s3" d="m213.3 256h85.4v142.2h-85.4z"/>
		<path id="Layer" class="s2" d="m255.4 256h43.3v142.2h-43.3z"/>
		<g id="Layer">
			<path id="Layer" class="s4" d="m99.6 312.9h85.3v85.3h-85.3z"/>
			<path id="Layer" class="s4" d="m313.8 102.6h-56.9c-5.3 0-9.5 4.2-9.5 9.5 0 5.2 4.2 9.4 9.5 9.4h34.8l-78.4 78.4-50.2-50.2c-3.7-3.7-9.7-3.7-13.4 0l-85.3 85.4c-3.7 3.7-3.7 9.7 0 13.4 1.9 1.8 4.3 2.8 6.7 2.8 2.4 0 4.9-1 6.7-2.8l78.6-78.6 50.2 50.1c3.7 3.7 9.7 3.7 13.4 0l84.3-84.2v33.1c0 5.3 4.2 9.5 9.5 9.5 5.2 0 9.4-4.2 9.4-9.5v-56.8c0-5.3-4.2-9.5-9.4-9.5z"/>
		</g>
		<path id="Layer" class="s2" d="m313.8 102.6h-56.9c-5.3 0-9.5 4.2-9.5 9.5 0 5.2 4.2 9.4 9.5 9.4h34.8l-78.4 78.4-0.1-0.1v23c2.5 0 5-0.9 6.8-2.8l84.3-84.2v33.1c0 5.3 4.2 9.5 9.5 9.5 5.2 0 9.4-4.2 9.4-9.5v-56.8c0-5.3-4.2-9.5-9.4-9.5z"/>
	</g>
</svg>